# xmcd
#
# Track frame offsets: 
#        150
#        15744
#        31679
#        57176
#        71606
#        91012
#        128316
#        144392
#        155405
#        168812
#        185996
#        207583
#
# Disc length: 3030 seconds
#
# Revision: 0
# Processed by: cddbd v1.4PL0 Copyright (c) Steve Scherf et al.
# Submitted via: ExactAudioCopy v0.90b3
#
DISCID=970bd40c
DTITLE=Various Artist - Opening The Doors
DYEAR=2001
DGENRE=Blues
TTITLE0=Moonlight Drive
TTITLE1=Roadhouse Blues
TTITLE2=Love Her Madly
TTITLE3=Love Me Two Times
TTITLE4=When The Music's Over
TTITLE5=L.A. Woman
TTITLE6=Hello I Love You
TTITLE7=Twentieth Century Fox
TTITLE8=Break On Through
TTITLE9=Soul Kitchen
TTITLE10=Light My Fire
TTITLE11=Alabama Song
EXTD=
EXTT0=
EXTT1=
EXTT2=
EXTT3=
EXTT4=
EXTT5=
EXTT6=
EXTT7=
EXTT8=
EXTT9=
EXTT10=
EXTT11=
PLAYORDER=
